<?xml version="1.0" encoding="iso-8859-1"?>
<!-- Generator: Adobe Illustrator 19.0.0, SVG Export Plug-In . SVG Version: 6.00 Build 0)  -->
<svg version="1.1" id="Capa_1" xmlns="http://www.w3.org/2000/svg" xmlns:xlink="http://www.w3.org/1999/xlink" x="0px" y="0px"
	 viewBox="0 0 511.999 511.999" style="enable-background:new 0 0 511.999 511.999;" xml:space="preserve">
<path style="fill:#554431;" d="M463.113,306.452c-31.559,56.745-91.812,93.098-158.367,93.098h-97.491
	c-66.555,0-126.808-36.353-158.367-93.098H463.113z"/>
<path style="fill:#6A563D;" d="M463.113,306.452c-31.559,56.745-91.812,93.098-158.367,93.098h-53.268
	c-66.555,0-126.808-36.353-158.367-93.098H463.113z"/>
<path style="fill:#A78966;" d="M504.44,237.405c0,8.875-1.839,17.528-5.337,25.88c-23.699,56.595-123.542,99.089-243.123,99.089
	c-118.014,0-216.801-41.378-242.158-96.867c-4.121-9.025-6.302-18.433-6.302-28.101c0-69.017,111.24-124.959,248.46-124.959
	S504.44,168.388,504.44,237.405z"/>
<path style="fill:#806749;" d="M492.552,236.4c0,4.674-0.603,9.287-1.779,13.82c-0.834,3.166-1.93,6.302-3.307,9.387
	c-22.564,50.745-117.622,88.857-231.485,88.857c-112.365,0-206.429-37.107-230.57-86.867c-1.759-3.628-3.136-7.317-4.141-11.076
	c-1.226-4.623-1.859-9.337-1.859-14.121c0-61.901,105.913-112.064,236.57-112.064S492.552,174.498,492.552,236.4z"/>
<path style="fill:#CC7400;" d="M490.773,250.22c-0.834,3.166-1.93,6.302-3.307,9.387c-22.564,50.745-117.622,88.857-231.485,88.857
	c-112.365,0-206.429-37.107-230.57-86.867c-1.759-3.628-3.136-7.317-4.141-11.076c38.383-45.097,129.009-76.786,234.701-76.786
	C362.919,173.734,453.324,204.459,490.773,250.22z"/>
<path style="fill:#AA6100;" d="M479.787,272.793c-31.9,44.021-120.044,75.671-223.806,75.671
	c-112.365,0-206.429-37.107-230.57-86.867c-1.759-3.628-3.136-7.317-4.141-11.076c6.272-7.377,13.95-14.382,22.855-20.955
	c0.965,3.246,2.201,6.442,3.729,9.588c24.141,49.76,118.205,86.867,230.57,86.867C363.522,326.02,438.118,304.734,479.787,272.793z"
	/>
<path style="fill:#EBE5DD;" d="M295.288,244.636c0,38.715-51.633,70.1-115.324,70.1s-115.325-31.385-115.325-70.1
	s51.633-95.727,115.324-95.727S295.288,205.922,295.288,244.636z"/>
<g>
	<path style="fill:#CD2A00;" d="M375.181,223.535c0,12.071-13.83,21.85-30.895,21.85c-17.076,0-30.905-9.779-30.905-21.85
		c0-3.357,1.065-6.543,2.985-9.377c4.955-7.387,15.588-12.483,27.92-12.483c12.322,0,22.956,5.096,27.91,12.483
		C374.116,216.992,375.181,220.177,375.181,223.535z"/>
	<path style="fill:#CD2A00;" d="M464.129,264.109c0,12.141-16.875,21.981-37.69,21.981s-37.69-9.84-37.69-21.981
		c0-3.357,1.286-6.533,3.598-9.377c6.03-7.447,19.026-12.603,34.092-12.603s28.061,5.156,34.091,12.603
		C462.842,257.577,464.129,260.753,464.129,264.109z"/>
	<path style="fill:#CD2A00;" d="M367.643,301.166c0,10.965-15.227,19.85-34.021,19.85c-18.795,0-34.031-8.885-34.031-19.85
		c0-3.387,1.457-6.583,4.04-9.377c5.729-6.231,17.016-10.473,29.991-10.473s24.252,4.241,29.991,10.473
		C366.186,294.583,367.643,297.779,367.643,301.166z"/>
</g>
<g>
	<path style="fill:#FF3501;" d="M372.196,214.158c-4.965,7.377-15.598,12.473-27.91,12.473c-12.322,0-22.955-5.096-27.92-12.473
		c4.955-7.387,15.588-12.483,27.92-12.483C356.608,201.675,367.241,206.771,372.196,214.158z"/>
	<path style="fill:#FF3501;" d="M460.53,254.732c-6.04,7.447-19.036,12.603-34.091,12.603c-15.056,0-28.051-5.156-34.091-12.603
		c6.03-7.447,19.026-12.603,34.091-12.603S454.5,247.285,460.53,254.732z"/>
	<path style="fill:#FF3501;" d="M363.613,291.788c-5.739,6.231-17.016,10.463-29.991,10.463s-24.252-4.231-29.991-10.463
		c5.729-6.231,17.016-10.473,29.991-10.473C346.597,281.316,357.874,285.556,363.613,291.788z"/>
</g>
<g>
	<path style="fill:#D9CCBC;" d="M153.186,194.375c0.826,1.449,2.776,1.832,3.949,0.77c12.767-11.56,7.799-23.492,4.756-28.466
		c-0.832-1.36-2.673-1.72-3.835-0.752C145.279,176.564,150.145,189.038,153.186,194.375z"/>
	<path style="fill:#D9CCBC;" d="M120.319,233.887c0.826,1.449,2.776,1.832,3.949,0.77c12.767-11.56,7.799-23.492,4.756-28.466
		c-0.832-1.36-2.673-1.72-3.835-0.752C112.412,216.077,117.278,228.551,120.319,233.887z"/>
	<path style="fill:#D9CCBC;" d="M87.222,260.254c0.826,1.449,2.776,1.832,3.949,0.77c12.767-11.56,7.799-23.492,4.756-28.466
		c-0.832-1.36-2.673-1.72-3.835-0.752C79.316,242.443,84.182,254.917,87.222,260.254z"/>
	<path style="fill:#D9CCBC;" d="M192.317,233.545c1.167,1.192,3.151,1.066,4.015-0.259c9.411-14.424,1.576-24.703-2.631-28.741
		c-1.15-1.104-3.022-0.984-3.901,0.247C180.145,218.327,188.019,229.156,192.317,233.545z"/>
	<path style="fill:#D9CCBC;" d="M234.529,270.732c1.167,1.192,3.151,1.066,4.015-0.259c9.411-14.424,1.576-24.703-2.631-28.741
		c-1.15-1.104-3.022-0.984-3.901,0.247C222.357,255.514,230.232,266.343,234.529,270.732z"/>
	<path style="fill:#D9CCBC;" d="M232.519,207.413c1.167,1.192,3.151,1.066,4.015-0.259c9.411-14.424,1.576-24.703-2.631-28.741
		c-1.15-1.104-3.022-0.984-3.901,0.247C220.347,192.196,228.222,203.024,232.519,207.413z"/>
	<path style="fill:#D9CCBC;" d="M158.104,292.122c1.092,1.26,3.08,1.254,4.023-0.016c10.264-13.831,3.061-24.564-0.895-28.847
		c-1.081-1.171-2.958-1.165-3.909,0.011C146.871,276.199,154.08,287.483,158.104,292.122z"/>
</g>
<path d="M504.472,205.022c-1.789-3.769-6.282-5.357-10.041-3.578c-3.769,1.789-5.367,6.282-3.578,10.041
	c4.984,10.49,7.184,21.917,5.528,33.689c-18.282-22.212-48.142-41.087-87.189-54.977c-47.787-17-105.673-24.664-155.452-23.991
	c-22.262-16.111-47.951-24.835-73.781-24.835c-18.734,0-37.227,4.523-54.967,13.438c-3.719,1.869-5.216,6.402-3.347,10.121
	c1.869,3.719,6.402,5.226,10.121,3.347c79.407-39.908,155.985,31.638,155.985,76.364c0,15.99-10.714,31.297-30.152,43.117
	c-20.624,12.533-48.192,19.438-77.641,19.438c-29.438,0-57.007-6.905-77.631-19.438c-32.288-19.634-36.76-43.88-21.92-71.078
	c6.807-12.457,16.83-23.859,27.629-32.815c3.206-2.663,3.638-7.417,0.985-10.623c-2.663-3.196-7.417-3.638-10.623-0.975
	c-11.96,9.94-21.79,21.327-28.855,33.046c-22.453,11.407-40.866,24.956-53.861,40.162c-6.02-40.182,31.526-71.341,68.022-89.701
	c121.605-61.149,321.896-40.056,391.238,33.117c2.864,3.025,7.638,3.156,10.654,0.291c3.025-2.864,3.156-7.638,0.291-10.654
	c-20.775-21.93-53.007-40.403-93.209-53.429c-96.404-31.216-228.268-26.8-315.749,17.207
	c-94.217,47.394-97.451,120.326-33.86,169.171c33.448,59.017,96.224,95.611,164.186,95.611h97.491
	c30.142,0,60.203-7.327,86.927-21.197c3.689-1.92,5.136-6.473,3.216-10.171c-1.92-3.689-6.473-5.126-10.161-3.216
	c-24.584,12.764-52.243,19.508-79.982,19.508h-97.491c-50.987,0-98.787-22.373-131.391-60.072
	c5.458,2.783,28.029,13.418,32.212,13.418c8.35,0,10.505-11.676,2.643-14.593c-45.499-16.985-77.068-41.207-89.601-67.701
	c8.946-11.637,17.538-21.682,38.323-34.775c-22.397,81.244,124.409,121.952,205.986,72.354
	c24.111-14.654,37.398-34.554,37.398-56.002c0-19.82-11.829-43.539-31.237-63.148c101.943,2.975,188.81,34.875,219.032,81.249
	c0.101,0.161,0.211,0.312,0.332,0.462c-6.091,12.975-16.754,25.368-31.589,36.705c-0.01,0.01-0.01,0.01-0.02,0.01
	c-0.513,0.301-0.995,0.653-1.427,1.075c-52.932,39.498-135.48,53.841-201.916,53.841c-41.016,0-81.55-5.196-117.22-15.036
	c-4.02-1.095-8.171,1.256-9.277,5.267c-1.106,4.02,1.256,8.171,5.267,9.277c36.966,10.181,78.887,15.568,121.23,15.568
	c75.574,0,138.472-16.53,180.136-37.951c-8.01,9.267-17.026,17.679-26.986,25.167c-5.778,4.346-2.657,13.568,4.543,13.568
	c1.568,0,3.166-0.492,4.523-1.518c20.805-15.649,37.85-35.026,50.655-57.6c28.071-21.589,43.127-47.157,43.127-74.173
	C511.999,226.43,509.467,215.535,504.472,205.022z"/>
<path d="M350.348,209.722c4.103,0.706,8.002-2.044,8.71-6.146c0.708-4.103-2.044-8.002-6.146-8.71
	c-23.158-3.993-47.072,8.614-47.072,28.665c0,16.484,16.886,29.397,38.441,29.397c21.556,0,38.442-12.913,38.442-29.397
	c0-2.073-0.278-4.145-0.829-6.158c-1.098-4.016-5.251-6.384-9.258-5.285c-4.016,1.098-6.382,5.242-5.285,9.258
	c0.196,0.719,0.296,1.453,0.296,2.185c0,7.629-10.919,14.321-23.367,14.321c-12.448,0-23.366-6.692-23.366-14.321
	C320.916,215.533,334.238,206.942,350.348,209.722z"/>
<path d="M435.588,277.811c-4.106,0.685-6.88,4.57-6.193,8.677c0.689,4.126,4.597,6.88,8.677,6.193
	c20.094-3.355,33.595-14.838,33.595-28.573c0-16.555-19.866-29.523-45.226-29.523c-48.216,0-61.547,41.592-21.872,55.495
	c3.93,1.372,8.23-0.693,9.607-4.621c1.377-3.929-0.691-8.229-4.621-9.607c-7.934-2.78-13.264-7.5-13.264-11.745
	c0-6.819,12.894-14.447,30.15-14.447c17.256,0,30.15,7.627,30.15,14.447C456.591,269.121,448.734,275.616,435.588,277.811z"/>
<path d="M292.057,301.168c0,4.749,1.76,9.387,5.089,13.414c2.653,3.209,7.403,3.661,10.612,1.007
	c3.208-2.652,3.66-7.403,1.007-10.612c-1.082-1.311-1.632-2.592-1.632-3.809c0-5.019,10.319-12.311,26.488-12.311
	s26.488,7.292,26.488,12.311c0,5.802-12.654,13.216-29.513,12.223c-4.167-0.261-7.723,2.929-7.966,7.085
	c-0.243,4.156,2.929,7.723,7.085,7.966c20.293,1.187,45.471-8.206,45.471-27.273c0-15.357-18.257-27.387-41.564-27.387
	C310.314,273.781,292.057,285.811,292.057,301.168z"/>
<g>
</g>
<g>
</g>
<g>
</g>
<g>
</g>
<g>
</g>
<g>
</g>
<g>
</g>
<g>
</g>
<g>
</g>
<g>
</g>
<g>
</g>
<g>
</g>
<g>
</g>
<g>
</g>
<g>
</g>
</svg>
